<svg xmlns="http://www.w3.org/2000/svg" width="30" height="30" viewBox="0 0 30 30">
  <g id="Group_2282" data-name="Group 2282" transform="translate(-1135 -2064)">
    <rect id="Rectangle_446" data-name="Rectangle 446" width="30" height="30" rx="4" transform="translate(1135 2064)" fill="#adadad"/>
    <g id="download" transform="translate(1141 2070)">
      <g id="Group_2279" data-name="Group 2279" transform="translate(0 11.359)">
        <g id="Group_2278" data-name="Group 2278">
          <path id="Path_1093" data-name="Path 1093" d="M16.594,313v4.639a.687.687,0,0,1-.7.667H2.109a.687.687,0,0,1-.7-.667V313H0v4.639a2.06,2.06,0,0,0,2.109,2H15.891a2.06,2.06,0,0,0,2.109-2V313Z" transform="translate(0 -313)" fill="#fff"/>
        </g>
      </g>
      <g id="Group_2281" data-name="Group 2281" transform="translate(4.852)">
        <g id="Group_2280" data-name="Group 2280" transform="translate(0)">
          <path id="Path_1094" data-name="Path 1094" d="M139.068,7.867,136.531,10.4V0H135.2V10.4L132.66,7.867l-.944.944,4.148,4.148,4.148-4.148Z" transform="translate(-131.716)" fill="#fff"/>
        </g>
      </g>
    </g>
  </g>
</svg>
