<svg xmlns="http://www.w3.org/2000/svg" xmlns:xlink="http://www.w3.org/1999/xlink" width="118" height="143" viewBox="0 0 118 143">
  <defs>
    <filter id="Rectangle_748" x="0" y="0" width="118" height="143" filterUnits="userSpaceOnUse">
      <feOffset dx="3" dy="3" input="SourceAlpha"/>
      <feGaussianBlur stdDeviation="3" result="blur"/>
      <feFlood flood-opacity="0.302"/>
      <feComposite operator="in" in2="blur"/>
      <feComposite in="SourceGraphic"/>
    </filter>
  </defs>
  <g id="Group_2443" data-name="Group 2443" transform="translate(-1694 -1329)">
    <g transform="matrix(1, 0, 0, 1, 1694, 1329)" filter="url(#Rectangle_748)">
      <rect id="Rectangle_748-2" data-name="Rectangle 748" width="100" height="125" transform="translate(6 6)" fill="#d93a16"/>
    </g>
    <g id="Group_2442" data-name="Group 2442" transform="translate(1708.679 1343.773)">
      <circle id="Ellipse_16" data-name="Ellipse 16" cx="28.5" cy="28.5" r="28.5" transform="translate(0.321 0.227)" fill="#d93a16"/>
      <circle id="Ellipse_17" data-name="Ellipse 17" cx="22" cy="22" r="22" transform="translate(36.043 39.019)" fill="#d93a16"/>
      <g id="help" transform="translate(2.491 1.175)">
        <path id="Path_1160" data-name="Path 1160" d="M80.529,54.827A26.224,26.224,0,0,0,61.467,29.592,30.744,30.744,0,0,0,0,30.934,30.979,30.979,0,0,0,4.264,46.658L.113,61.754l15.006-4.175a30.5,30.5,0,0,0,14.295,4.257A26.115,26.115,0,0,0,54.5,81.014a25.819,25.819,0,0,0,13.245-3.641L80.415,80.9,76.91,68.151A26.213,26.213,0,0,0,80.529,54.827ZM15.864,52.446l-8.984,2.5,2.485-9.038L8.8,45.017a26,26,0,1,1,21.95,12.1,25.831,25.831,0,0,1-14-4.105ZM73.648,74.092l-6.666-1.855-.89.583A21.138,21.138,0,0,1,54.5,76.267a21.376,21.376,0,0,1-20.2-14.606,30.9,30.9,0,0,0,27-27.161A21.51,21.51,0,0,1,72.383,66.49l-.579.9Zm0,0" fill="#fff" stroke="#d93a16" stroke-linecap="round" stroke-linejoin="round" stroke-width="10"/>
        <path id="Path_1161" data-name="Path 1161" d="M180.5,271h4.163v4.163H180.5Zm0,0" transform="translate(-151.903 -227.791)" fill="#fff" stroke="#d93a16" stroke-linecap="round" stroke-linejoin="round" stroke-width="10"/>
        <path id="Path_1162" data-name="Path 1162" d="M147.99,98.326a4.12,4.12,0,0,1-1.355,3.073l-4.89,4.475v5.08h4.163v-3.247l3.537-3.237A8.326,8.326,0,1,0,135.5,98.326h4.163a4.163,4.163,0,1,1,8.326,0Zm0,0" transform="translate(-113.42 -75.027)" fill="#fff" stroke="#d93a16" stroke-linecap="round" stroke-linejoin="round" stroke-width="10"/>
      </g>
      <g id="help-2" data-name="help" transform="translate(2.491 1.175)">
        <path id="Path_1160-2" data-name="Path 1160" d="M80.529,54.827A26.224,26.224,0,0,0,61.467,29.592,30.744,30.744,0,0,0,0,30.934,30.979,30.979,0,0,0,4.264,46.658L.113,61.754l15.006-4.175a30.5,30.5,0,0,0,14.295,4.257A26.115,26.115,0,0,0,54.5,81.014a25.819,25.819,0,0,0,13.245-3.641L80.415,80.9,76.91,68.151A26.213,26.213,0,0,0,80.529,54.827ZM15.864,52.446l-8.984,2.5,2.485-9.038L8.8,45.017a26,26,0,1,1,21.95,12.1,25.831,25.831,0,0,1-14-4.105ZM73.648,74.092l-6.666-1.855-.89.583A21.138,21.138,0,0,1,54.5,76.267a21.376,21.376,0,0,1-20.2-14.606,30.9,30.9,0,0,0,27-27.161A21.51,21.51,0,0,1,72.383,66.49l-.579.9Zm0,0" fill="#fff"/>
        <path id="Path_1161-2" data-name="Path 1161" d="M180.5,271h4.163v4.163H180.5Zm0,0" transform="translate(-151.903 -227.791)" fill="#fff"/>
        <path id="Path_1162-2" data-name="Path 1162" d="M147.99,98.326a4.12,4.12,0,0,1-1.355,3.073l-4.89,4.475v5.08h4.163v-3.247l3.537-3.237A8.326,8.326,0,1,0,135.5,98.326h4.163a4.163,4.163,0,1,1,8.326,0Zm0,0" transform="translate(-113.42 -75.027)" fill="#fff"/>
      </g>
    </g>
    <text id="常见问题" transform="translate(1750 1449)" fill="#fff" font-size="16" font-family="MicrosoftYaHei, Microsoft YaHei"><tspan x="-32" y="0">常见问题</tspan></text>
  </g>
</svg>
