<svg id="Layer_1" data-name="Layer 1" xmlns="http://www.w3.org/2000/svg" width="81.073" height="65" viewBox="0 0 81.073 65">
  <path id="Path_1197" data-name="Path 1197" d="M73.75,65H7.181A7.188,7.188,0,0,1,0,57.819V7.181A7.188,7.188,0,0,1,7.181,0H73.75a7.188,7.188,0,0,1,7.181,7.181V57.819A7.188,7.188,0,0,1,73.75,65ZM7.181,2.783a4.4,4.4,0,0,0-4.4,4.4V57.819a4.4,4.4,0,0,0,4.4,4.4H73.75a4.4,4.4,0,0,0,4.4-4.4V7.181a4.4,4.4,0,0,0-4.4-4.4Z" transform="translate(0.071)" fill="#333"/>
  <path id="Path_1198" data-name="Path 1198" d="M79.415,34.426H1.266a1.391,1.391,0,1,1,0-2.779H79.415a1.391,1.391,0,1,1,0,2.779Z" transform="translate(0.196 -20.179)" fill="#333"/>
  <path id="Path_1199" data-name="Path 1199" d="M198.891,19.214a1.391,1.391,0,0,1-.544-.1,1.45,1.45,0,0,1-.446-.3,1.485,1.485,0,0,1-.308-.46,1.522,1.522,0,0,1,0-1.054,1.449,1.449,0,0,1,.308-.446,1.409,1.409,0,0,1,1.96,0,1.2,1.2,0,0,1,.308.446,1.362,1.362,0,0,1-.315,1.529,1.414,1.414,0,0,1-.446.3A1.315,1.315,0,0,1,198.891,19.214Z" transform="translate(-125.871 -10.493)" fill="#333"/>
  <path id="Path_1200" data-name="Path 1200" d="M184.5,19.181a1.373,1.373,0,0,1-1.388-1.391,1.385,1.385,0,0,1,2.667-.525,1.33,1.33,0,0,1,.112.525,1.449,1.449,0,0,1-.4,1,1.667,1.667,0,0,1-.46.3A1.319,1.319,0,0,1,184.5,19.181Z" transform="translate(-116.695 -10.46)" fill="#333"/>
  <path id="Path_1201" data-name="Path 1201" d="M170.1,19.214a1.319,1.319,0,0,1-.529-.1,1.649,1.649,0,0,1-.457-.3,1.388,1.388,0,0,1-.293-.46,1.17,1.17,0,0,1-.112-.529,1.4,1.4,0,0,1,.112-.525,1.362,1.362,0,0,1,.293-.446,1.428,1.428,0,0,1,1.975,0,1.413,1.413,0,0,1,.29.446,1.293,1.293,0,0,1,0,1.054,1.449,1.449,0,0,1-.29.46A1.377,1.377,0,0,1,170.1,19.214Z" transform="translate(-107.512 -10.493)" fill="#333"/>
  <path id="Path_1202" data-name="Path 1202" d="M68.391,98.867a1.4,1.4,0,0,1-.978-.406l-8.449-8.449a1.388,1.388,0,0,1,0-1.964L67.413,79.6A1.391,1.391,0,1,1,69.38,81.57l-7.464,7.46,7.464,7.464a1.391,1.391,0,0,1-.985,2.373Z" transform="translate(-37.269 -50.501)" fill="#333"/>
  <path id="Path_1203" data-name="Path 1203" d="M135.222,98.867a1.391,1.391,0,0,1-.986-2.373L141.7,89.03l-7.446-7.46a1.391,1.391,0,1,1,1.968-1.967l8.446,8.446a1.391,1.391,0,0,1,0,1.964l-8.446,8.449a1.4,1.4,0,0,1-1,.406Z" transform="translate(-85.27 -50.501)" fill="#333"/>
  <path id="Path_1204" data-name="Path 1204" d="M97.733,94.629a1.449,1.449,0,0,1-.46-.08,1.4,1.4,0,0,1-.851-1.775l8.88-25.225a1.391,1.391,0,1,1,2.623.924l-8.88,25.217a1.4,1.4,0,0,1-1.312.938Z" transform="translate(-61.365 -42.455)" fill="#333"/>
</svg>
