<svg xmlns="http://www.w3.org/2000/svg" width="50" height="50" viewBox="0 0 50 50">
  <g id="Group_2205" data-name="Group 2205" transform="translate(-1429 -2698)">
    <rect id="Rectangle_446" data-name="Rectangle 446" width="50" height="50" rx="12" transform="translate(1429 2698)" fill="#fff"/>
    <g id="Group_2142" data-name="Group 2142" transform="translate(1417.418 2670.08)">
      <path id="Path_1068" data-name="Path 1068" d="M43.754,47.785a12.343,12.343,0,0,0-8.318,3.36,9.878,9.878,0,0,0-3.068,8.368c-1.262-.156-2.412-.328-3.568-.426a2.217,2.217,0,0,0-1.212.205c-1.123.634-2.2,1.349-3.475,2.146.234-1.059.386-1.986.654-2.878a1.094,1.094,0,0,0-.5-1.447c-3.877-2.737-5.511-6.834-4.288-11.051,1.132-3.9,3.91-6.268,7.686-7.5a12.885,12.885,0,0,1,14.079,4.125,9.643,9.643,0,0,1,2.009,5.1ZM28.89,46.471a1.488,1.488,0,0,0-1.433-1.49,1.447,1.447,0,0,0-1.505,1.4,1.429,1.429,0,0,0,1.416,1.483,1.47,1.47,0,0,0,1.522-1.392Zm7.755-1.49a1.491,1.491,0,0,0-1.456,1.468,1.454,1.454,0,0,0,1.494,1.421,1.444,1.444,0,1,0-.038-2.889Z" transform="translate(0)" fill="#333"/>
      <path id="Path_1069" data-name="Path 1069" d="M142.36,139.768a10.967,10.967,0,0,0-2.96-1.243c-.995-.1-2.041.47-3.082.576a10.3,10.3,0,0,1-8.354-2.725c-4.455-4.12-3.818-10.438,1.336-13.815,4.581-3,11.3-2,14.528,2.163a8.251,8.251,0,0,1-.953,11.509c-1,.883-1.354,1.61-.715,2.775a3.3,3.3,0,0,1,.2.759ZM130.719,128.5a1.2,1.2,0,1,0,.009-2.407,1.2,1.2,0,1,0-.009,2.407Zm7.5-2.4a1.2,1.2,0,0,0-1.194,1.151,1.187,1.187,0,1,0,1.194-1.151Z" transform="translate(-91.35 -71.848)" fill="#333"/>
    </g>
  </g>
</svg>
