<svg xmlns="http://www.w3.org/2000/svg" xmlns:xlink="http://www.w3.org/1999/xlink" width="146.327" height="851.279" viewBox="0 0 146.327 851.279">
  <defs>
    <filter id="Path_1205" x="4.67" y="61.688" width="39.86" height="22.67" filterUnits="userSpaceOnUse">
      <feOffset dx="3" dy="3" input="SourceAlpha"/>
      <feGaussianBlur stdDeviation="3" result="blur"/>
      <feFlood flood-opacity="0.204"/>
      <feComposite operator="in" in2="blur"/>
      <feComposite in="SourceGraphic"/>
    </filter>
    <filter id="Path_1206" x="101.788" y="179.46" width="39.858" height="22.669" filterUnits="userSpaceOnUse">
      <feOffset dx="3" dy="3" input="SourceAlpha"/>
      <feGaussianBlur stdDeviation="3" result="blur-2"/>
      <feFlood flood-opacity="0.204"/>
      <feComposite operator="in" in2="blur-2"/>
      <feComposite in="SourceGraphic"/>
    </filter>
    <filter id="Path_1207" x="4.67" y="297.076" width="39.86" height="22.67" filterUnits="userSpaceOnUse">
      <feOffset dx="3" dy="3" input="SourceAlpha"/>
      <feGaussianBlur stdDeviation="3" result="blur-3"/>
      <feFlood flood-opacity="0.204"/>
      <feComposite operator="in" in2="blur-3"/>
      <feComposite in="SourceGraphic"/>
    </filter>
    <filter id="Path_1208" x="101.788" y="414.686" width="39.858" height="22.67" filterUnits="userSpaceOnUse">
      <feOffset dx="3" dy="3" input="SourceAlpha"/>
      <feGaussianBlur stdDeviation="3" result="blur-4"/>
      <feFlood flood-opacity="0.204"/>
      <feComposite operator="in" in2="blur-4"/>
      <feComposite in="SourceGraphic"/>
    </filter>
    <filter id="Path_1209" x="4.67" y="532.933" width="39.86" height="22.669" filterUnits="userSpaceOnUse">
      <feOffset dx="3" dy="3" input="SourceAlpha"/>
      <feGaussianBlur stdDeviation="3" result="blur-5"/>
      <feFlood flood-opacity="0.204"/>
      <feComposite operator="in" in2="blur-5"/>
      <feComposite in="SourceGraphic"/>
    </filter>
    <filter id="Path_1210" x="101.788" y="649.772" width="39.858" height="22.669" filterUnits="userSpaceOnUse">
      <feOffset dx="3" dy="3" input="SourceAlpha"/>
      <feGaussianBlur stdDeviation="3" result="blur-6"/>
      <feFlood flood-opacity="0.204"/>
      <feComposite operator="in" in2="blur-6"/>
      <feComposite in="SourceGraphic"/>
    </filter>
    <filter id="Ellipse_20" x="1.048" y="0" width="145.279" height="145.279" filterUnits="userSpaceOnUse">
      <feOffset dx="3" dy="3" input="SourceAlpha"/>
      <feGaussianBlur stdDeviation="3" result="blur-7"/>
      <feFlood flood-opacity="0.204"/>
      <feComposite operator="in" in2="blur-7"/>
      <feComposite in="SourceGraphic"/>
    </filter>
    <filter id="Ellipse_23" x="1.048" y="118" width="145.279" height="145.279" filterUnits="userSpaceOnUse">
      <feOffset dx="3" dy="3" input="SourceAlpha"/>
      <feGaussianBlur stdDeviation="3" result="blur-8"/>
      <feFlood flood-opacity="0.204"/>
      <feComposite operator="in" in2="blur-8"/>
      <feComposite in="SourceGraphic"/>
    </filter>
    <filter id="Ellipse_26" x="1.048" y="236" width="145.279" height="145.279" filterUnits="userSpaceOnUse">
      <feOffset dx="3" dy="3" input="SourceAlpha"/>
      <feGaussianBlur stdDeviation="3" result="blur-9"/>
      <feFlood flood-opacity="0.204"/>
      <feComposite operator="in" in2="blur-9"/>
      <feComposite in="SourceGraphic"/>
    </filter>
    <filter id="Ellipse_29" x="1.048" y="353" width="145.279" height="145.279" filterUnits="userSpaceOnUse">
      <feOffset dx="3" dy="3" input="SourceAlpha"/>
      <feGaussianBlur stdDeviation="3" result="blur-10"/>
      <feFlood flood-opacity="0.204"/>
      <feComposite operator="in" in2="blur-10"/>
      <feComposite in="SourceGraphic"/>
    </filter>
    <filter id="Ellipse_32" x="1.048" y="471" width="145.279" height="145.279" filterUnits="userSpaceOnUse">
      <feOffset dx="3" dy="3" input="SourceAlpha"/>
      <feGaussianBlur stdDeviation="3" result="blur-11"/>
      <feFlood flood-opacity="0.204"/>
      <feComposite operator="in" in2="blur-11"/>
      <feComposite in="SourceGraphic"/>
    </filter>
    <filter id="Ellipse_35" x="1.048" y="589" width="145.279" height="145.279" filterUnits="userSpaceOnUse">
      <feOffset dx="3" dy="3" input="SourceAlpha"/>
      <feGaussianBlur stdDeviation="3" result="blur-12"/>
      <feFlood flood-opacity="0.204"/>
      <feComposite operator="in" in2="blur-12"/>
      <feComposite in="SourceGraphic"/>
    </filter>
    <filter id="Ellipse_38" x="0" y="59.354" width="27.339" height="27.339" filterUnits="userSpaceOnUse">
      <feOffset dx="3" dy="3" input="SourceAlpha"/>
      <feGaussianBlur stdDeviation="3" result="blur-13"/>
      <feFlood flood-opacity="0.204"/>
      <feComposite operator="in" in2="blur-13"/>
      <feComposite in="SourceGraphic"/>
    </filter>
    <filter id="Ellipse_39" x="1.468" y="60.822" width="24.404" height="24.404" filterUnits="userSpaceOnUse">
      <feOffset dx="3" dy="3" input="SourceAlpha"/>
      <feGaussianBlur stdDeviation="3" result="blur-14"/>
      <feFlood flood-opacity="0.204"/>
      <feComposite operator="in" in2="blur-14"/>
      <feComposite in="SourceGraphic"/>
    </filter>
    <filter id="Ellipse_40" x="118.977" y="177.365" width="27.339" height="27.339" filterUnits="userSpaceOnUse">
      <feOffset dx="3" dy="3" input="SourceAlpha"/>
      <feGaussianBlur stdDeviation="3" result="blur-15"/>
      <feFlood flood-opacity="0.204"/>
      <feComposite operator="in" in2="blur-15"/>
      <feComposite in="SourceGraphic"/>
    </filter>
    <filter id="Ellipse_41" x="120.444" y="178.833" width="24.404" height="24.404" filterUnits="userSpaceOnUse">
      <feOffset dx="3" dy="3" input="SourceAlpha"/>
      <feGaussianBlur stdDeviation="3" result="blur-16"/>
      <feFlood flood-opacity="0.204"/>
      <feComposite operator="in" in2="blur-16"/>
      <feComposite in="SourceGraphic"/>
    </filter>
    <filter id="Ellipse_42" x="0" y="294.838" width="27.339" height="27.339" filterUnits="userSpaceOnUse">
      <feOffset dx="3" dy="3" input="SourceAlpha"/>
      <feGaussianBlur stdDeviation="3" result="blur-17"/>
      <feFlood flood-opacity="0.204"/>
      <feComposite operator="in" in2="blur-17"/>
      <feComposite in="SourceGraphic"/>
    </filter>
    <filter id="Ellipse_43" x="1.468" y="296.306" width="24.404" height="24.404" filterUnits="userSpaceOnUse">
      <feOffset dx="3" dy="3" input="SourceAlpha"/>
      <feGaussianBlur stdDeviation="3" result="blur-18"/>
      <feFlood flood-opacity="0.204"/>
      <feComposite operator="in" in2="blur-18"/>
      <feComposite in="SourceGraphic"/>
    </filter>
    <filter id="Ellipse_44" x="118.977" y="412.197" width="27.339" height="27.339" filterUnits="userSpaceOnUse">
      <feOffset dx="3" dy="3" input="SourceAlpha"/>
      <feGaussianBlur stdDeviation="3" result="blur-19"/>
      <feFlood flood-opacity="0.204"/>
      <feComposite operator="in" in2="blur-19"/>
      <feComposite in="SourceGraphic"/>
    </filter>
    <filter id="Path_1211" x="120.444" y="413.665" width="24.404" height="24.404" filterUnits="userSpaceOnUse">
      <feOffset dx="3" dy="3" input="SourceAlpha"/>
      <feGaussianBlur stdDeviation="3" result="blur-20"/>
      <feFlood flood-opacity="0.204"/>
      <feComposite operator="in" in2="blur-20"/>
      <feComposite in="SourceGraphic"/>
    </filter>
    <filter id="Ellipse_45" x="0" y="530.715" width="27.339" height="27.339" filterUnits="userSpaceOnUse">
      <feOffset dx="3" dy="3" input="SourceAlpha"/>
      <feGaussianBlur stdDeviation="3" result="blur-21"/>
      <feFlood flood-opacity="0.204"/>
      <feComposite operator="in" in2="blur-21"/>
      <feComposite in="SourceGraphic"/>
    </filter>
    <filter id="Path_1212" x="1.468" y="532.181" width="24.403" height="24.403" filterUnits="userSpaceOnUse">
      <feOffset dx="3" dy="3" input="SourceAlpha"/>
      <feGaussianBlur stdDeviation="3" result="blur-22"/>
      <feFlood flood-opacity="0.204"/>
      <feComposite operator="in" in2="blur-22"/>
      <feComposite in="SourceGraphic"/>
    </filter>
    <filter id="Ellipse_46" x="118.977" y="647.573" width="27.339" height="27.339" filterUnits="userSpaceOnUse">
      <feOffset dx="3" dy="3" input="SourceAlpha"/>
      <feGaussianBlur stdDeviation="3" result="blur-23"/>
      <feFlood flood-opacity="0.204"/>
      <feComposite operator="in" in2="blur-23"/>
      <feComposite in="SourceGraphic"/>
    </filter>
    <filter id="Path_1213" x="120.444" y="649.041" width="24.404" height="24.403" filterUnits="userSpaceOnUse">
      <feOffset dx="3" dy="3" input="SourceAlpha"/>
      <feGaussianBlur stdDeviation="3" result="blur-24"/>
      <feFlood flood-opacity="0.204"/>
      <feComposite operator="in" in2="blur-24"/>
      <feComposite in="SourceGraphic"/>
    </filter>
    <filter id="Path_1214" x="73.265" y="122.794" width="68.705" height="66.341" filterUnits="userSpaceOnUse">
      <feOffset dx="3" dy="3" input="SourceAlpha"/>
      <feGaussianBlur stdDeviation="3" result="blur-25"/>
      <feFlood flood-opacity="0.204"/>
      <feComposite operator="in" in2="blur-25"/>
      <feComposite in="SourceGraphic"/>
    </filter>
    <filter id="Path_1215" x="76.968" y="192.59" width="64.982" height="65.572" filterUnits="userSpaceOnUse">
      <feOffset dx="3" dy="3" input="SourceAlpha"/>
      <feGaussianBlur stdDeviation="3" result="blur-26"/>
      <feFlood flood-opacity="0.204"/>
      <feComposite operator="in" in2="blur-26"/>
      <feComposite in="SourceGraphic"/>
    </filter>
    <filter id="Path_1216" x="4.651" y="240.161" width="67.274" height="66.5" filterUnits="userSpaceOnUse">
      <feOffset dx="3" dy="3" input="SourceAlpha"/>
      <feGaussianBlur stdDeviation="3" result="blur-27"/>
      <feFlood flood-opacity="0.204"/>
      <feComposite operator="in" in2="blur-27"/>
      <feComposite in="SourceGraphic"/>
    </filter>
    <filter id="Path_1217" x="4.808" y="310.042" width="64.518" height="65.168" filterUnits="userSpaceOnUse">
      <feOffset dx="3" dy="3" input="SourceAlpha"/>
      <feGaussianBlur stdDeviation="3" result="blur-28"/>
      <feFlood flood-opacity="0.204"/>
      <feComposite operator="in" in2="blur-28"/>
      <feComposite in="SourceGraphic"/>
    </filter>
    <filter id="Path_1218" x="74.596" y="427.582" width="67.235" height="65.474" filterUnits="userSpaceOnUse">
      <feOffset dx="3" dy="3" input="SourceAlpha"/>
      <feGaussianBlur stdDeviation="3" result="blur-29"/>
      <feFlood flood-opacity="0.204"/>
      <feComposite operator="in" in2="blur-29"/>
      <feComposite in="SourceGraphic"/>
    </filter>
    <filter id="Path_1219" x="73.292" y="357.269" width="68.744" height="66.664" filterUnits="userSpaceOnUse">
      <feOffset dx="3" dy="3" input="SourceAlpha"/>
      <feGaussianBlur stdDeviation="3" result="blur-30"/>
      <feFlood flood-opacity="0.204"/>
      <feComposite operator="in" in2="blur-30"/>
      <feComposite in="SourceGraphic"/>
    </filter>
    <filter id="Path_1220" x="5.001" y="545.833" width="64.697" height="64.325" filterUnits="userSpaceOnUse">
      <feOffset dx="3" dy="3" input="SourceAlpha"/>
      <feGaussianBlur stdDeviation="3" result="blur-31"/>
      <feFlood flood-opacity="0.204"/>
      <feComposite operator="in" in2="blur-31"/>
      <feComposite in="SourceGraphic"/>
    </filter>
    <filter id="Path_1221" x="4.456" y="475.532" width="64.859" height="67.113" filterUnits="userSpaceOnUse">
      <feOffset dx="3" dy="3" input="SourceAlpha"/>
      <feGaussianBlur stdDeviation="3" result="blur-32"/>
      <feFlood flood-opacity="0.204"/>
      <feComposite operator="in" in2="blur-32"/>
      <feComposite in="SourceGraphic"/>
    </filter>
    <filter id="Path_1222" x="75.136" y="592.802" width="66.946" height="66.625" filterUnits="userSpaceOnUse">
      <feOffset dx="3" dy="3" input="SourceAlpha"/>
      <feGaussianBlur stdDeviation="3" result="blur-33"/>
      <feFlood flood-opacity="0.204"/>
      <feComposite operator="in" in2="blur-33"/>
      <feComposite in="SourceGraphic"/>
    </filter>
    <filter id="Path_1223" x="4.704" y="74.598" width="64.358" height="65.643" filterUnits="userSpaceOnUse">
      <feOffset dx="3" dy="3" input="SourceAlpha"/>
      <feGaussianBlur stdDeviation="3" result="blur-34"/>
      <feFlood flood-opacity="0.204"/>
      <feComposite operator="in" in2="blur-34"/>
      <feComposite in="SourceGraphic"/>
    </filter>
    <filter id="Path_1224" x="56.814" y="233.361" width="31.47" height="31.47" filterUnits="userSpaceOnUse">
      <feOffset dx="3" dy="3" input="SourceAlpha"/>
      <feGaussianBlur stdDeviation="3" result="blur-35"/>
      <feFlood flood-opacity="0.204"/>
      <feComposite operator="in" in2="blur-35"/>
      <feComposite in="SourceGraphic"/>
    </filter>
    <filter id="Path_1225" x="61.526" y="238.069" width="22.047" height="22.047" filterUnits="userSpaceOnUse">
      <feOffset dx="3" dy="3" input="SourceAlpha"/>
      <feGaussianBlur stdDeviation="3" result="blur-36"/>
      <feFlood flood-opacity="0.204"/>
      <feComposite operator="in" in2="blur-36"/>
      <feComposite in="SourceGraphic"/>
    </filter>
    <filter id="Ellipse_47" x="56.223" y="350.139" width="32.731" height="32.731" filterUnits="userSpaceOnUse">
      <feOffset dx="3" dy="3" input="SourceAlpha"/>
      <feGaussianBlur stdDeviation="3" result="blur-37"/>
      <feFlood flood-opacity="0.204"/>
      <feComposite operator="in" in2="blur-37"/>
      <feComposite in="SourceGraphic"/>
    </filter>
    <filter id="Path_1226" x="61.526" y="355.486" width="22.047" height="22.047" filterUnits="userSpaceOnUse">
      <feOffset dx="3" dy="3" input="SourceAlpha"/>
      <feGaussianBlur stdDeviation="3" result="blur-38"/>
      <feFlood flood-opacity="0.204"/>
      <feComposite operator="in" in2="blur-38"/>
      <feComposite in="SourceGraphic"/>
    </filter>
    <filter id="Ellipse_48" x="54.024" y="465.472" width="37.05" height="37.05" filterUnits="userSpaceOnUse">
      <feOffset dx="3" dy="3" input="SourceAlpha"/>
      <feGaussianBlur stdDeviation="3" result="blur-39"/>
      <feFlood flood-opacity="0.204"/>
      <feComposite operator="in" in2="blur-39"/>
      <feComposite in="SourceGraphic"/>
    </filter>
    <filter id="Path_1227" x="61.526" y="472.972" width="22.047" height="22.047" filterUnits="userSpaceOnUse">
      <feOffset dx="3" dy="3" input="SourceAlpha"/>
      <feGaussianBlur stdDeviation="3" result="blur-40"/>
      <feFlood flood-opacity="0.204"/>
      <feComposite operator="in" in2="blur-40"/>
      <feComposite in="SourceGraphic"/>
    </filter>
    <filter id="Path_1228" x="56.814" y="586.053" width="31.47" height="31.47" filterUnits="userSpaceOnUse">
      <feOffset dx="3" dy="3" input="SourceAlpha"/>
      <feGaussianBlur stdDeviation="3" result="blur-41"/>
      <feFlood flood-opacity="0.204"/>
      <feComposite operator="in" in2="blur-41"/>
      <feComposite in="SourceGraphic"/>
    </filter>
    <filter id="Path_1229" x="61.526" y="590.762" width="22.047" height="22.047" filterUnits="userSpaceOnUse">
      <feOffset dx="3" dy="3" input="SourceAlpha"/>
      <feGaussianBlur stdDeviation="3" result="blur-42"/>
      <feFlood flood-opacity="0.204"/>
      <feComposite operator="in" in2="blur-42"/>
      <feComposite in="SourceGraphic"/>
    </filter>
    <filter id="Ellipse_49" x="54.263" y="113.308" width="36.555" height="36.554" filterUnits="userSpaceOnUse">
      <feOffset dx="3" dy="3" input="SourceAlpha"/>
      <feGaussianBlur stdDeviation="3" result="blur-43"/>
      <feFlood flood-opacity="0.204"/>
      <feComposite operator="in" in2="blur-43"/>
      <feComposite in="SourceGraphic"/>
    </filter>
    <filter id="Path_1230" x="61.526" y="120.554" width="22.047" height="22.047" filterUnits="userSpaceOnUse">
      <feOffset dx="3" dy="3" input="SourceAlpha"/>
      <feGaussianBlur stdDeviation="3" result="blur-44"/>
      <feFlood flood-opacity="0.204"/>
      <feComposite operator="in" in2="blur-44"/>
      <feComposite in="SourceGraphic"/>
    </filter>
    <filter id="Path_1231" x="4.67" y="767.429" width="39.86" height="22.669" filterUnits="userSpaceOnUse">
      <feOffset dx="3" dy="3" input="SourceAlpha"/>
      <feGaussianBlur stdDeviation="3" result="blur-45"/>
      <feFlood flood-opacity="0.204"/>
      <feComposite operator="in" in2="blur-45"/>
      <feComposite in="SourceGraphic"/>
    </filter>
    <filter id="Ellipse_50" x="1.048" y="706" width="145.279" height="145.279" filterUnits="userSpaceOnUse">
      <feOffset dx="3" dy="3" input="SourceAlpha"/>
      <feGaussianBlur stdDeviation="3" result="blur-46"/>
      <feFlood flood-opacity="0.204"/>
      <feComposite operator="in" in2="blur-46"/>
      <feComposite in="SourceGraphic"/>
    </filter>
    <filter id="Ellipse_53" x="0" y="765.211" width="27.339" height="27.339" filterUnits="userSpaceOnUse">
      <feOffset dx="3" dy="3" input="SourceAlpha"/>
      <feGaussianBlur stdDeviation="3" result="blur-47"/>
      <feFlood flood-opacity="0.204"/>
      <feComposite operator="in" in2="blur-47"/>
      <feComposite in="SourceGraphic"/>
    </filter>
    <filter id="Path_1232" x="1.468" y="766.677" width="24.403" height="24.404" filterUnits="userSpaceOnUse">
      <feOffset dx="3" dy="3" input="SourceAlpha"/>
      <feGaussianBlur stdDeviation="3" result="blur-48"/>
      <feFlood flood-opacity="0.204"/>
      <feComposite operator="in" in2="blur-48"/>
      <feComposite in="SourceGraphic"/>
    </filter>
    <filter id="Path_1233" x="74.596" y="662.072" width="67.235" height="65.484" filterUnits="userSpaceOnUse">
      <feOffset dx="3" dy="3" input="SourceAlpha"/>
      <feGaussianBlur stdDeviation="3" result="blur-49"/>
      <feFlood flood-opacity="0.204"/>
      <feComposite operator="in" in2="blur-49"/>
      <feComposite in="SourceGraphic"/>
    </filter>
    <filter id="Path_1234" x="4.456" y="710.028" width="64.859" height="67.111" filterUnits="userSpaceOnUse">
      <feOffset dx="3" dy="3" input="SourceAlpha"/>
      <feGaussianBlur stdDeviation="3" result="blur-50"/>
      <feFlood flood-opacity="0.204"/>
      <feComposite operator="in" in2="blur-50"/>
      <feComposite in="SourceGraphic"/>
    </filter>
    <filter id="Ellipse_54" x="54.024" y="699.968" width="37.05" height="37.05" filterUnits="userSpaceOnUse">
      <feOffset dx="3" dy="3" input="SourceAlpha"/>
      <feGaussianBlur stdDeviation="3" result="blur-51"/>
      <feFlood flood-opacity="0.204"/>
      <feComposite operator="in" in2="blur-51"/>
      <feComposite in="SourceGraphic"/>
    </filter>
    <filter id="Path_1235" x="61.526" y="707.466" width="22.047" height="22.047" filterUnits="userSpaceOnUse">
      <feOffset dx="3" dy="3" input="SourceAlpha"/>
      <feGaussianBlur stdDeviation="3" result="blur-52"/>
      <feFlood flood-opacity="0.204"/>
      <feComposite operator="in" in2="blur-52"/>
      <feComposite in="SourceGraphic"/>
    </filter>
    <filter id="Ellipse_55" x="25.048" y="24" width="98" height="98" filterUnits="userSpaceOnUse">
      <feOffset dx="3" dy="3" input="SourceAlpha"/>
      <feGaussianBlur stdDeviation="3" result="blur-53"/>
      <feFlood flood-opacity="0.204"/>
      <feComposite operator="in" in2="blur-53"/>
      <feComposite in="SourceGraphic"/>
    </filter>
    <filter id="Ellipse_56" x="25.048" y="142" width="98" height="98" filterUnits="userSpaceOnUse">
      <feOffset dx="3" dy="3" input="SourceAlpha"/>
      <feGaussianBlur stdDeviation="3" result="blur-54"/>
      <feFlood flood-opacity="0.204"/>
      <feComposite operator="in" in2="blur-54"/>
      <feComposite in="SourceGraphic"/>
    </filter>
    <filter id="Ellipse_57" x="25.048" y="260" width="98" height="98" filterUnits="userSpaceOnUse">
      <feOffset dx="3" dy="3" input="SourceAlpha"/>
      <feGaussianBlur stdDeviation="3" result="blur-55"/>
      <feFlood flood-opacity="0.204"/>
      <feComposite operator="in" in2="blur-55"/>
      <feComposite in="SourceGraphic"/>
    </filter>
    <filter id="Ellipse_58" x="25.048" y="377" width="98" height="98" filterUnits="userSpaceOnUse">
      <feOffset dx="3" dy="3" input="SourceAlpha"/>
      <feGaussianBlur stdDeviation="3" result="blur-56"/>
      <feFlood flood-opacity="0.204"/>
      <feComposite operator="in" in2="blur-56"/>
      <feComposite in="SourceGraphic"/>
    </filter>
    <filter id="Ellipse_59" x="25.048" y="495" width="98" height="98" filterUnits="userSpaceOnUse">
      <feOffset dx="3" dy="3" input="SourceAlpha"/>
      <feGaussianBlur stdDeviation="3" result="blur-57"/>
      <feFlood flood-opacity="0.204"/>
      <feComposite operator="in" in2="blur-57"/>
      <feComposite in="SourceGraphic"/>
    </filter>
    <filter id="Ellipse_60" x="25.048" y="613" width="98" height="98" filterUnits="userSpaceOnUse">
      <feOffset dx="3" dy="3" input="SourceAlpha"/>
      <feGaussianBlur stdDeviation="3" result="blur-58"/>
      <feFlood flood-opacity="0.204"/>
      <feComposite operator="in" in2="blur-58"/>
      <feComposite in="SourceGraphic"/>
    </filter>
    <filter id="Ellipse_61" x="25.048" y="730" width="98" height="98" filterUnits="userSpaceOnUse">
      <feOffset dx="3" dy="3" input="SourceAlpha"/>
      <feGaussianBlur stdDeviation="3" result="blur-59"/>
      <feFlood flood-opacity="0.204"/>
      <feComposite operator="in" in2="blur-59"/>
      <feComposite in="SourceGraphic"/>
    </filter>
  </defs>
  <g id="Group_2850" data-name="Group 2850" transform="translate(-857.952 -2781)">
    <g transform="matrix(1, 0, 0, 1, 857.95, 2781)" filter="url(#Path_1205)">
      <path id="Path_1205-2" data-name="Path 1205" d="M0,2.335A2.335,2.335,0,0,1,2.335,0h17.19a2.335,2.335,0,0,1,0,4.67H2.335A2.335,2.335,0,0,1,0,2.335Z" transform="translate(10.67 67.69)" fill="#ff9921"/>
    </g>
    <g transform="matrix(1, 0, 0, 1, 857.95, 2781)" filter="url(#Path_1206)">
      <path id="Path_1206-2" data-name="Path 1206" d="M0,2.335A2.335,2.335,0,0,1,2.335,0H19.523a2.335,2.335,0,1,1,0,4.669H2.335A2.335,2.335,0,0,1,0,2.334Z" transform="translate(107.79 185.46)" fill="#ff7347"/>
    </g>
    <g transform="matrix(1, 0, 0, 1, 857.95, 2781)" filter="url(#Path_1207)">
      <path id="Path_1207-2" data-name="Path 1207" d="M0,2.335A2.335,2.335,0,0,1,2.335,0h17.19a2.335,2.335,0,0,1,0,4.67H2.335A2.335,2.335,0,0,1,0,2.335Z" transform="translate(10.67 303.08)" fill="#1ccbd8"/>
    </g>
    <g transform="matrix(1, 0, 0, 1, 857.95, 2781)" filter="url(#Path_1208)">
      <path id="Path_1208-2" data-name="Path 1208" d="M0,2.335A2.335,2.335,0,0,1,2.335,0H19.523a2.335,2.335,0,1,1,0,4.669H2.335A2.335,2.335,0,0,1,0,2.335Z" transform="translate(107.79 420.69)" fill="#1fa6ee"/>
    </g>
    <g transform="matrix(1, 0, 0, 1, 857.95, 2781)" filter="url(#Path_1209)">
      <path id="Path_1209-2" data-name="Path 1209" d="M0,2.335A2.335,2.335,0,0,1,2.335,0h17.19a2.335,2.335,0,1,1,0,4.67H2.335A2.335,2.335,0,0,1,0,2.335Z" transform="translate(10.67 538.93)" fill="#207ed0"/>
    </g>
    <g transform="matrix(1, 0, 0, 1, 857.95, 2781)" filter="url(#Path_1210)">
      <path id="Path_1210-2" data-name="Path 1210" d="M0,2.335A2.335,2.335,0,0,1,2.335,0H19.523a2.335,2.335,0,0,1,0,4.67H2.335A2.335,2.335,0,0,1,0,2.335Z" transform="translate(107.79 655.77)" fill="#cc8aff"/>
    </g>
    <g transform="matrix(1, 0, 0, 1, 857.95, 2781)" filter="url(#Ellipse_20)">
      <circle id="Ellipse_20-2" data-name="Ellipse 20" cx="45" cy="45" r="45" transform="translate(134.33 69.64) rotate(135)" fill="#ff9921"/>
    </g>
    <g transform="matrix(1, 0, 0, 1, 857.95, 2781)" filter="url(#Ellipse_23)">
      <circle id="Ellipse_23-2" data-name="Ellipse 23" cx="45" cy="45" r="45" transform="translate(134.33 187.64) rotate(135)" fill="#ff7347"/>
    </g>
    <g transform="matrix(1, 0, 0, 1, 857.95, 2781)" filter="url(#Ellipse_26)">
      <circle id="Ellipse_26-2" data-name="Ellipse 26" cx="45" cy="45" r="45" transform="translate(134.33 305.64) rotate(135)" fill="#1ccbd8"/>
    </g>
    <g transform="matrix(1, 0, 0, 1, 857.95, 2781)" filter="url(#Ellipse_29)">
      <circle id="Ellipse_29-2" data-name="Ellipse 29" cx="45" cy="45" r="45" transform="translate(134.33 422.64) rotate(135)" fill="#1fa6ee"/>
    </g>
    <g transform="matrix(1, 0, 0, 1, 857.95, 2781)" filter="url(#Ellipse_32)">
      <circle id="Ellipse_32-2" data-name="Ellipse 32" cx="45" cy="45" r="45" transform="translate(134.33 540.64) rotate(135)" fill="#207ed0"/>
    </g>
    <g transform="matrix(1, 0, 0, 1, 857.95, 2781)" filter="url(#Ellipse_35)">
      <circle id="Ellipse_35-2" data-name="Ellipse 35" cx="45" cy="45" r="45" transform="translate(134.33 658.64) rotate(135)" fill="#cc8aff"/>
    </g>
    <g transform="matrix(1, 0, 0, 1, 857.95, 2781)" filter="url(#Ellipse_38)">
      <ellipse id="Ellipse_38-2" data-name="Ellipse 38" cx="4.67" cy="4.67" rx="4.67" ry="4.67" transform="translate(6 65.35)" fill="#ff9921"/>
    </g>
    <g transform="matrix(1, 0, 0, 1, 857.95, 2781)" filter="url(#Ellipse_39)">
      <ellipse id="Ellipse_39-2" data-name="Ellipse 39" cx="3.202" cy="3.202" rx="3.202" ry="3.202" transform="translate(7.47 66.82)" fill="#fff"/>
    </g>
    <g transform="matrix(1, 0, 0, 1, 857.95, 2781)" filter="url(#Ellipse_40)">
      <ellipse id="Ellipse_40-2" data-name="Ellipse 40" cx="4.67" cy="4.67" rx="4.67" ry="4.67" transform="translate(124.98 183.37)" fill="#ff7347"/>
    </g>
    <g transform="matrix(1, 0, 0, 1, 857.95, 2781)" filter="url(#Ellipse_41)">
      <ellipse id="Ellipse_41-2" data-name="Ellipse 41" cx="3.202" cy="3.202" rx="3.202" ry="3.202" transform="translate(126.44 184.83)" fill="#fff"/>
    </g>
    <g transform="matrix(1, 0, 0, 1, 857.95, 2781)" filter="url(#Ellipse_42)">
      <ellipse id="Ellipse_42-2" data-name="Ellipse 42" cx="4.67" cy="4.67" rx="4.67" ry="4.67" transform="translate(6 300.84)" fill="#1ccbd8"/>
    </g>
    <g transform="matrix(1, 0, 0, 1, 857.95, 2781)" filter="url(#Ellipse_43)">
      <ellipse id="Ellipse_43-2" data-name="Ellipse 43" cx="3.202" cy="3.202" rx="3.202" ry="3.202" transform="translate(7.47 302.31)" fill="#fff"/>
    </g>
    <g transform="matrix(1, 0, 0, 1, 857.95, 2781)" filter="url(#Ellipse_44)">
      <ellipse id="Ellipse_44-2" data-name="Ellipse 44" cx="4.67" cy="4.67" rx="4.67" ry="4.67" transform="translate(124.98 418.2)" fill="#1fa6ee"/>
    </g>
    <g transform="matrix(1, 0, 0, 1, 857.95, 2781)" filter="url(#Path_1211)">
      <path id="Path_1211-2" data-name="Path 1211" d="M3.2,6.4A3.2,3.2,0,1,1,6.4,3.2,3.2,3.2,0,0,1,3.2,6.4Z" transform="translate(126.44 419.67)" fill="#fff"/>
    </g>
    <g transform="matrix(1, 0, 0, 1, 857.95, 2781)" filter="url(#Ellipse_45)">
      <ellipse id="Ellipse_45-2" data-name="Ellipse 45" cx="4.67" cy="4.67" rx="4.67" ry="4.67" transform="translate(6 536.71)" fill="#207ed0"/>
    </g>
    <g transform="matrix(1, 0, 0, 1, 857.95, 2781)" filter="url(#Path_1212)">
      <path id="Path_1212-2" data-name="Path 1212" d="M3.2,6.4A3.2,3.2,0,1,1,6.4,3.2,3.2,3.2,0,0,1,3.2,6.4Z" transform="translate(7.47 538.18)" fill="#fff"/>
    </g>
    <g transform="matrix(1, 0, 0, 1, 857.95, 2781)" filter="url(#Ellipse_46)">
      <ellipse id="Ellipse_46-2" data-name="Ellipse 46" cx="4.67" cy="4.67" rx="4.67" ry="4.67" transform="translate(124.98 653.57)" fill="#cc8aff"/>
    </g>
    <g transform="matrix(1, 0, 0, 1, 857.95, 2781)" filter="url(#Path_1213)">
      <path id="Path_1213-2" data-name="Path 1213" d="M3.2,6.4A3.2,3.2,0,1,1,6.4,3.2,3.2,3.2,0,0,1,3.2,6.4Z" transform="translate(126.44 655.04)" fill="#fff"/>
    </g>
    <g transform="matrix(1, 0, 0, 1, 857.95, 2781)" filter="url(#Path_1214)">
      <path id="Path_1214-2" data-name="Path 1214" d="M0,1.54.229,0,1,.115c1.6.237,3.2.543,4.771.909l.758.178L6.172,2.718l-.758-.177c-1.527-.356-3.09-.655-4.645-.885ZM10.731,4.05l.517-1.468.735.258c1.521.537,3.037,1.143,4.514,1.8l.71.311-.637,1.421-.71-.312c-1.434-.643-2.911-1.232-4.391-1.756ZM20.784,8.557l.786-1.35.672.394c1.39.816,2.764,1.7,4.084,2.626l.637.447-.893,1.275-.637-.448c-1.287-.9-2.626-1.762-3.978-2.556Zm9.028,6.332,1.027-1.17.584.514c1.213,1.063,2.4,2.188,3.518,3.348l.542.559-1.118,1.089-.542-.56c-1.09-1.127-2.246-2.224-3.424-3.259Zm7.669,7.918,1.228-.956.465.61c.991,1.271,1.941,2.6,2.825,3.95l.426.651-1.3.853-.428-.65c-.859-1.314-1.785-2.609-2.75-3.848Zm6.039,9.222,1.387-.705.338.692c.733,1.438,1.413,2.923,2.023,4.415l.3.72-1.44.59-.3-.721c-.6-1.452-1.259-2.9-1.972-4.3Zm4.173,10.2,1.5-.428.215.748c.444,1.556.83,3.138,1.146,4.719l.156.763-1.525.312-.156-.763c-.311-1.541-.683-3.086-1.118-4.595Z" transform="translate(79.26 128.79)" fill="#ff9921"/>
    </g>
    <g transform="matrix(1, 0, 0, 1, 857.95, 2781)" filter="url(#Path_1215)">
      <path id="Path_1215-2" data-name="Path 1215" d="M0,46.042l.761-.156c1.451-.312,2.906-.688,4.329-1.111l.746-.224.445,1.493-.746.222c-1.46.436-2.957.82-4.445,1.141l-.761.165Zm9.98-2.973.718-.3c1.371-.57,2.736-1.2,4.059-1.868l.693-.353.707,1.387-.693.354c-1.359.693-2.761,1.34-4.168,1.924l-.719.3Zm9.283-4.724.654-.423c1.245-.806,2.476-1.67,3.658-2.57l.623-.467.943,1.245-.623.467c-1.213.925-2.476,1.812-3.756,2.646l-.652.422Zm8.293-6.31.567-.532c1.09-1.017,2.14-2.087,3.143-3.182l.525-.574L32.939,28.8l-.525.574C31.385,30.5,30.3,31.594,29.189,32.64l-.568.532Zm7.037-7.687.467-.623c.884-1.192,1.734-2.433,2.523-3.689L38,19.377l1.317.828-.414.658c-.811,1.29-1.683,2.565-2.592,3.789l-.467.623Zm5.547-8.819.344-.7c.657-1.332,1.27-2.705,1.821-4.083l.29-.722,1.444.577-.29.724c-.565,1.413-1.2,2.823-1.868,4.192l-.346.7Zm3.891-9.674.213-.749c.4-1.427.761-2.887,1.055-4.343L45.456,0l1.525.311-.156.763c-.3,1.494-.668,2.995-1.09,4.461l-.212.749Z" transform="translate(82.97 198.59)" fill="#ff7347"/>
    </g>
    <g transform="matrix(1, 0, 0, 1, 857.95, 2781)" filter="url(#Path_1216)">
      <path id="Path_1216-2" data-name="Path 1216" d="M0,48.205l.146-.764c.3-1.557.669-3.124,1.09-4.653l.209-.75,1.5.417-.209.75c-.414,1.488-.778,3.012-1.065,4.53l-.146.764Zm2.989-10.74.288-.722c.588-1.474,1.245-2.943,1.947-4.358l.346-.7,1.4.691-.346.7C5.94,34.46,5.3,35.89,4.729,37.325l-.288.724Zm4.948-9.98.419-.657c.851-1.338,1.768-2.658,2.727-3.925l.467-.623,1.245.934-.467.623c-.934,1.234-1.826,2.52-2.655,3.823l-.419.657ZM14.656,18.6l.532-.568c1.09-1.156,2.232-2.283,3.406-3.35l.577-.524,1.046,1.153-.576.523c-1.144,1.038-2.26,2.137-3.319,3.269l-.532.566Zm8.25-7.484.623-.467c1.283-.934,2.618-1.832,3.969-2.662l.663-.406.814,1.326-.663.406c-1.317.809-2.617,1.681-3.865,2.593l-.623.458ZM32.4,5.294l.7-.333c1.434-.682,2.912-1.312,4.4-1.868l.727-.277.553,1.455-.727.277c-1.444.548-2.884,1.161-4.28,1.824l-.7.335ZM42.816,1.347l.753-.2C45.1.752,46.675.409,48.239.135L49.005,0l.269,1.533-.766.135c-1.524.268-3.052.6-4.547.989l-.753.2Z" transform="translate(10.65 246.16)" fill="#ff7347"/>
    </g>
    <g transform="matrix(1, 0, 0, 1, 857.95, 2781)" filter="url(#Path_1217)">
      <path id="Path_1217-2" data-name="Path 1217" d="M0,.311,1.524,0l.156.763c.3,1.437.657,2.881,1.066,4.291L2.96,5.8l-1.494.433L1.25,5.487C.831,4.038.462,2.554.16,1.079ZM2.939,10.475l1.443-.584.291.722c.551,1.36,1.161,2.718,1.813,4.033l.347.7-1.4.691-.346-.7c-.671-1.351-1.3-2.744-1.868-4.142Zm4.7,9.481,1.317-.83.414.658c.778,1.245,1.625,2.469,2.5,3.647l.467.623-1.245.934-.467-.623c-.9-1.209-1.763-2.47-2.567-3.745Zm6.307,8.5,1.15-1.049.525.574c.99,1.09,2.034,2.145,3.1,3.15l.567.534L18.227,32.8l-.562-.531c-1.1-1.033-2.179-2.121-3.186-3.234Zm7.708,7.256.946-1.236.623.467c1.167.893,2.381,1.753,3.611,2.554l.652.425-.85,1.3-.652-.425c-1.262-.823-2.511-1.7-3.708-2.623ZM30.528,41.5l.713-1.384.693.356c1.306.672,2.654,1.3,4.006,1.868l.716.312-.6,1.433-.718-.3c-1.388-.585-2.772-1.233-4.114-1.924Zm9.756,4.117.455-1.488.746.227c1.4.428,2.841.808,4.274,1.128l.76.17-.339,1.519-.76-.17c-1.471-.328-2.95-.719-4.391-1.16Z" transform="translate(10.81 316.04)" fill="#1ccbd8"/>
    </g>
    <g transform="matrix(1, 0, 0, 1, 857.95, 2781)" filter="url(#Path_1218)">
      <path id="Path_1218-2" data-name="Path 1218" d="M0,45.94l.767-.132c1.505-.26,3.017-.584,4.492-.962l.755-.193L6.4,46.161l-.755.193c-1.516.387-3.068.721-4.613.987l-.767.132Zm10.374-2.646.73-.272c1.429-.534,2.855-1.132,4.237-1.776l.705-.33.658,1.41-.705.33c-1.42.663-2.884,1.276-4.358,1.824l-.73.272Zm9.7-4.528.666-.4c1.306-.788,2.6-1.637,3.837-2.528l.634-.453.906,1.265-.632.453c-1.275.914-2.6,1.787-3.941,2.595l-.666.4Zm8.706-6.237.582-.518C30.5,31,31.619,29.925,32.674,28.823l.54-.561,1.122,1.077L33.8,29.9c-1.09,1.13-2.229,2.23-3.4,3.269l-.581.517ZM36.2,24.8l.478-.623c.934-1.206,1.834-2.466,2.671-3.736l.426-.654,1.3.853-.426.652c-.859,1.309-1.782,2.6-2.743,3.838l-.476.623Zm5.879-8.956.356-.692c.7-1.357,1.349-2.76,1.936-4.167l.3-.719,1.437.6-.3.719c-.6,1.445-1.273,2.884-1.989,4.279l-.356.693ZM46.207,5.96l.221-.746c.434-1.462.814-2.958,1.13-4.453L47.713,0l1.522.322-.156.761c-.325,1.533-.716,3.073-1.163,4.573L47.7,6.4Z" transform="translate(80.6 433.58)" fill="#1fa6ee"/>
    </g>
    <g transform="matrix(1, 0, 0, 1, 857.95, 2781)" filter="url(#Path_1219)">
      <path id="Path_1219-2" data-name="Path 1219" d="M0,1.539.23,0,1,.115c1.6.238,3.216.546,4.791.917l.758.177L6.192,2.725l-.758-.179c-1.533-.36-3.1-.66-4.67-.892ZM10.776,4.069,11.3,2.6l.733.26c1.525.54,3.049,1.152,4.526,1.816l.71.319-.64,1.42-.71-.312c-1.438-.647-2.92-1.245-4.406-1.77ZM20.865,8.612l.791-1.34.669.4c1.4.822,2.774,1.712,4.1,2.646l.637.448-.9,1.272-.637-.448c-1.289-.911-2.632-1.778-3.989-2.578Zm9.043,6.382,1.03-1.167.584.515c1.214,1.073,2.4,2.207,3.522,3.373l.54.561-1.122,1.08-.54-.562c-1.09-1.135-2.248-2.241-3.424-3.286Zm7.683,7.976,1.231-.951.476.623c.99,1.282,1.939,2.621,2.82,3.978l.423.652-1.3.848-.425-.654c-.858-1.321-1.782-2.626-2.747-3.874Zm6.025,9.288,1.39-.7.35.694c.73,1.448,1.4,2.943,2.013,4.444l.293.722L46.217,38l-.291-.721c-.59-1.461-1.245-2.917-1.96-4.327ZM47.763,42.53l1.5-.422.21.75c.439,1.556.817,3.153,1.125,4.746l.148.764-1.528.3L49.06,47.9c-.3-1.557-.668-3.1-1.09-4.621Z" transform="translate(79.29 363.27)" fill="#1ccbd8"/>
    </g>
    <g transform="matrix(1, 0, 0, 1, 857.95, 2781)" filter="url(#Path_1220)">
      <path id="Path_1220-2" data-name="Path 1220" d="M0,.342,1.518,0l.171.76C2,2.179,2.386,3.6,2.814,5l.227.744L1.553,6.2l-.227-.744C.887,4.024.5,2.559.171,1.1ZM3.071,10.374,4.5,9.77l.3.716C5.373,11.828,6,13.163,6.663,14.458l.356.693-1.385.711-.355-.691c-.685-1.331-1.326-2.7-1.907-4.08Zm4.794,9.339,1.306-.848.423.654c.794,1.22,1.644,2.427,2.526,3.58l.467.623-1.237.945-.467-.623C9.976,22.854,9.1,21.617,8.29,20.362Zm6.36,8.349L15.361,27l.532.568c.995,1.063,2.042,2.1,3.113,3.088l.573.528-1.054,1.146-.573-.528c-1.1-1.012-2.179-2.078-3.2-3.171Zm7.72,7.11.934-1.245.623.467c1.166.873,2.378,1.712,3.6,2.49l.657.419-.837,1.312-.655-.419c-1.261-.8-2.506-1.667-3.7-2.563Zm8.847,5.65.7-1.39.694.35c1.3.657,2.646,1.27,3.988,1.824l.719.3-.59,1.435-.719-.3c-1.382-.57-2.76-1.2-4.1-1.868ZM40.5,44.828l.445-1.493.746.223c1.4.416,2.823.778,4.246,1.09l.761.156-.328,1.522-.761-.165c-1.462-.311-2.929-.693-4.358-1.119Z" transform="translate(11 551.83)" fill="#207ed0"/>
    </g>
    <g transform="matrix(1, 0, 0, 1, 857.95, 2781)" filter="url(#Path_1221)">
      <path id="Path_1221-2" data-name="Path 1221" d="M0,48.848l.132-.767c.263-1.53.591-3.069.976-4.573l.191-.753,1.508.385-.191.755c-.374,1.463-.694,2.957-.951,4.452l-.132.767ZM2.7,38.284l.271-.728c.54-1.455,1.146-2.908,1.8-4.316l.328-.707,1.412.655-.328.707c-.637,1.371-1.225,2.785-1.751,4.2l-.271.728ZM7.286,28.4l.4-.668c.8-1.331,1.658-2.646,2.557-3.915l.451-.634,1.269.9-.451.635c-.876,1.233-1.712,2.515-2.49,3.812l-.4.668ZM13.6,19.514l.514-.584c1.027-1.164,2.112-2.3,3.227-3.384L17.9,15l1.09,1.118-.559.542c-1.09,1.054-2.142,2.164-3.141,3.3l-.515.584Zm7.82-7.588.612-.481c1.222-.96,2.49-1.883,3.785-2.744l.649-.431.862,1.3L26.682,10c-1.258.839-2.49,1.737-3.687,2.673l-.612.481Zm9.067-6.042.69-.363c1.376-.721,2.8-1.4,4.223-2.006l.714-.311.613,1.43-.716.311C34.623,5.54,33.239,6.19,31.9,6.9l-.688.361ZM40.5,1.6l.742-.229c1.485-.458,3-.861,4.514-1.2l.76-.17.339,1.519-.76.17c-1.476.33-2.957.722-4.4,1.167l-.744.229Z" transform="translate(10.46 481.53)" fill="#1fa6ee"/>
    </g>
    <g transform="matrix(1, 0, 0, 1, 857.95, 2781)" filter="url(#Path_1222)">
      <path id="Path_1222-2" data-name="Path 1222" d="M0,1.532.279,0l.766.139C2.6.423,4.167.774,5.7,1.183l.753.2-.4,1.5-.752-.2c-1.49-.4-3.013-.739-4.529-1.016ZM10.455,4.323l.562-1.452.725.28c1.476.57,2.948,1.208,4.375,1.9l.7.338-.676,1.4-.7-.338c-1.388-.669-2.822-1.29-4.259-1.846Zm9.75,4.7L21.027,7.7l.66.411c1.345.836,2.673,1.736,3.946,2.676l.623.467L25.331,12.5l-.623-.467c-1.245-.917-2.532-1.793-3.843-2.607Zm8.706,6.428L29.963,14.3l.573.526c1.167,1.071,2.305,2.2,3.382,3.359l.529.571-1.139,1.058-.531-.57c-1.048-1.129-2.156-2.229-3.294-3.269Zm7.367,7.924,1.245-.934.467.623c.948,1.267,1.858,2.587,2.7,3.926l.416.668-1.314.825-.416-.658c-.822-1.3-1.712-2.59-2.63-3.824Zm5.772,9.151,1.4-.685.342.7c.7,1.423,1.343,2.89,1.924,4.358l.282.722-1.448.57-.286-.724C43.7,36.029,43.07,34.6,42.4,33.216ZM46.02,42.589l1.5-.412.205.75c.419,1.527.778,3.09,1.074,4.645l.145.766-1.53.288-.145-.764c-.286-1.514-.638-3.037-1.046-4.514Z" transform="translate(81.14 598.8)" fill="#207ed0"/>
    </g>
    <g transform="matrix(1, 0, 0, 1, 857.95, 2781)" filter="url(#Path_1223)">
      <path id="Path_1223-2" data-name="Path 1223" d="M0,.3,1.527,0l.156.763c.286,1.447.633,2.9,1.03,4.319l.21.749-1.5.42-.21-.75C.806,4.044.451,2.551.157,1.064ZM2.858,10.528l1.449-.57.285.724c.54,1.37,1.141,2.738,1.787,4.064l.339.7-1.4.68-.341-.7c-.662-1.363-1.279-2.767-1.834-4.174ZM7.5,20.087l1.323-.82.409.661c.778,1.253,1.611,2.491,2.49,3.683l.467.623-1.256.918-.467-.623c-.893-1.222-1.751-2.49-2.548-3.781Zm6.27,8.583,1.156-1.043.52.579c.987,1.09,2.023,2.167,3.1,3.185l.563.537-1.074,1.127-.563-.537c-1.09-1.044-2.165-2.145-3.178-3.269Zm7.689,7.337.954-1.229.615.476c1.166.9,2.381,1.776,3.611,2.587l.649.429-.858,1.3-.649-.428c-1.262-.834-2.511-1.728-3.708-2.657Zm8.872,5.86.721-1.379.69.36c1.307.683,2.657,1.323,4.013,1.9l.714.312-.612,1.43-.716-.311c-1.392-.595-2.777-1.253-4.12-1.955ZM40.1,46.054l.467-1.486.744.23c1.4.439,2.85.827,4.287,1.155l.76.173-.347,1.518-.758-.173c-1.477-.337-2.957-.736-4.4-1.186Z" transform="translate(10.7 80.6)" fill="#ff9921"/>
    </g>
    <g transform="matrix(1, 0, 0, 1, 857.95, 2781)" filter="url(#Path_1224)">
      <path id="Path_1224-2" data-name="Path 1224" d="M6.735,13.47A6.735,6.735,0,1,1,13.47,6.735,6.735,6.735,0,0,1,6.735,13.47Z" transform="translate(62.81 239.36)" fill="#ff7347"/>
    </g>
    <g transform="matrix(1, 0, 0, 1, 857.95, 2781)" filter="url(#Path_1225)">
      <path id="Path_1225-2" data-name="Path 1225" d="M2.023,4.047A2.023,2.023,0,1,1,4.047,2.023,2.024,2.024,0,0,1,2.023,4.047Z" transform="translate(67.53 244.07)" fill="#fff"/>
    </g>
    <g transform="matrix(1, 0, 0, 1, 857.95, 2781)" filter="url(#Ellipse_47)">
      <ellipse id="Ellipse_47-2" data-name="Ellipse 47" cx="6.735" cy="6.735" rx="6.735" ry="6.735" transform="translate(76.95 369.54) rotate(174.35)" fill="#1ccbd8"/>
    </g>
    <g transform="matrix(1, 0, 0, 1, 857.95, 2781)" filter="url(#Path_1226)">
      <path id="Path_1226-2" data-name="Path 1226" d="M2.023,4.047A2.024,2.024,0,1,1,4.047,2.024,2.024,2.024,0,0,1,2.023,4.047Z" transform="translate(67.53 361.49)" fill="#fff"/>
    </g>
    <g transform="matrix(1, 0, 0, 1, 857.95, 2781)" filter="url(#Ellipse_48)">
      <circle id="Ellipse_48-2" data-name="Ellipse 48" cx="6.735" cy="6.735" r="6.735" transform="translate(79.07 481) rotate(135)" fill="#1fa6ee"/>
    </g>
    <g transform="matrix(1, 0, 0, 1, 857.95, 2781)" filter="url(#Path_1227)">
      <path id="Path_1227-2" data-name="Path 1227" d="M2.023,4.047A2.023,2.023,0,1,1,4.047,2.023,2.024,2.024,0,0,1,2.023,4.047Z" transform="translate(67.53 478.97)" fill="#fff"/>
    </g>
    <g transform="matrix(1, 0, 0, 1, 857.95, 2781)" filter="url(#Path_1228)">
      <path id="Path_1228-2" data-name="Path 1228" d="M6.735,13.47A6.735,6.735,0,1,1,13.47,6.735,6.735,6.735,0,0,1,6.735,13.47Z" transform="translate(62.81 592.05)" fill="#207ed0"/>
    </g>
    <g transform="matrix(1, 0, 0, 1, 857.95, 2781)" filter="url(#Path_1229)">
      <path id="Path_1229-2" data-name="Path 1229" d="M2.023,4.047A2.023,2.023,0,1,1,4.047,2.023,2.023,2.023,0,0,1,2.023,4.047Z" transform="translate(67.53 596.76)" fill="#fff"/>
    </g>
    <g transform="matrix(1, 0, 0, 1, 857.95, 2781)" filter="url(#Ellipse_49)">
      <ellipse id="Ellipse_49-2" data-name="Ellipse 49" cx="6.735" cy="6.735" rx="6.735" ry="6.735" transform="translate(78.82 130.74) rotate(148.09)" fill="#ff9921"/>
    </g>
    <g transform="matrix(1, 0, 0, 1, 857.95, 2781)" filter="url(#Path_1230)">
      <path id="Path_1230-2" data-name="Path 1230" d="M2.023,4.047A2.023,2.023,0,1,1,4.047,2.023,2.023,2.023,0,0,1,2.023,4.047Z" transform="translate(67.53 126.55)" fill="#fff"/>
    </g>
    <g transform="matrix(1, 0, 0, 1, 857.95, 2781)" filter="url(#Path_1231)">
      <path id="Path_1231-2" data-name="Path 1231" d="M0,2.335A2.335,2.335,0,0,1,2.335,0h17.19a2.335,2.335,0,0,1,0,4.67H2.335A2.335,2.335,0,0,1,0,2.335Z" transform="translate(10.67 773.43)" fill="#ff4147"/>
    </g>
    <g transform="matrix(1, 0, 0, 1, 857.95, 2781)" filter="url(#Ellipse_50)">
      <circle id="Ellipse_50-2" data-name="Ellipse 50" cx="45" cy="45" r="45" transform="translate(134.33 775.64) rotate(135)" fill="#ff4147"/>
    </g>
    <g transform="matrix(1, 0, 0, 1, 857.95, 2781)" filter="url(#Ellipse_53)">
      <ellipse id="Ellipse_53-2" data-name="Ellipse 53" cx="4.67" cy="4.67" rx="4.67" ry="4.67" transform="translate(6 771.21)" fill="#ff4147"/>
    </g>
    <g transform="matrix(1, 0, 0, 1, 857.95, 2781)" filter="url(#Path_1232)">
      <path id="Path_1232-2" data-name="Path 1232" d="M3.2,6.4A3.2,3.2,0,1,1,6.4,3.2,3.2,3.2,0,0,1,3.2,6.4Z" transform="translate(7.47 772.68)" fill="#fff"/>
    </g>
    <g transform="matrix(1, 0, 0, 1, 857.95, 2781)" filter="url(#Path_1233)">
      <path id="Path_1233-2" data-name="Path 1233" d="M0,45.948l.767-.132c1.505-.26,3.017-.582,4.492-.96l.755-.193.388,1.51-.755.193c-1.516.388-3.068.719-4.613.987l-.767.132ZM10.374,43.3l.73-.271c1.429-.534,2.855-1.132,4.237-1.778l.711-.336.658,1.41-.705.328c-1.42.663-2.884,1.278-4.358,1.824l-.73.272Zm9.7-4.526.666-.4c1.306-.786,2.6-1.637,3.837-2.526l.633-.455.906,1.265-.632.453c-1.275.914-2.6,1.787-3.941,2.6l-.669.4Zm8.706-6.239.582-.529c1.139-1.015,2.254-2.087,3.309-3.188l.54-.562,1.122,1.079-.539.56c-1.09,1.13-2.229,2.232-3.4,3.269l-.581.518ZM36.2,24.811l.478-.623c.934-1.206,1.834-2.464,2.671-3.736l.426-.651,1.3.844-.433.657c-.859,1.309-1.782,2.6-2.743,3.84l-.476.623Zm5.879-8.964.356-.691c.7-1.359,1.349-2.76,1.936-4.168l.3-.718,1.437.6-.3.718c-.6,1.446-1.273,2.886-1.989,4.28l-.356.693Zm4.126-9.885.221-.747c.434-1.462.814-2.957,1.13-4.453L47.713,0l1.522.324-.156.761c-.325,1.533-.716,3.073-1.163,4.573L47.7,6.4Z" transform="translate(80.6 668.07)" fill="#cc8aff"/>
    </g>
    <g transform="matrix(1, 0, 0, 1, 857.95, 2781)" filter="url(#Path_1234)">
      <path id="Path_1234-2" data-name="Path 1234" d="M0,48.846l.132-.766c.263-1.532.591-3.069.976-4.573l.191-.753,1.508.384-.191.753c-.374,1.465-.694,2.957-.951,4.453l-.132.766ZM2.7,38.284l.271-.73c.54-1.455,1.146-2.908,1.8-4.316l.332-.705,1.4.655-.328.705c-.637,1.373-1.225,2.786-1.751,4.2l-.271.73ZM7.286,28.4l.4-.668c.8-1.331,1.658-2.646,2.557-3.913l.451-.635,1.269.9-.451.634c-.876,1.233-1.712,2.515-2.49,3.812l-.4.668ZM13.6,19.514l.514-.584c1.027-1.164,2.112-2.3,3.227-3.385L17.9,15l1.09,1.118-.559.542c-1.09,1.054-2.142,2.162-3.141,3.3l-.515.584Zm7.82-7.59.612-.478c1.222-.96,2.49-1.883,3.785-2.743l.649-.433.862,1.3L26.682,10c-1.258.837-2.49,1.737-3.687,2.671l-.612.481Zm9.067-6.042.69-.361c1.376-.722,2.8-1.4,4.223-2.008l.714-.311.613,1.43-.716.311C34.623,5.537,33.239,6.189,31.9,6.9l-.688.363ZM40.5,1.6l.742-.229c1.485-.456,3-.861,4.514-1.2l.76-.17.339,1.519-.76.17c-1.476.33-2.957.722-4.4,1.167l-.744.229Z" transform="translate(10.46 716.03)" fill="#cc8aff"/>
    </g>
    <g transform="matrix(1, 0, 0, 1, 857.95, 2781)" filter="url(#Ellipse_54)">
      <circle id="Ellipse_54-2" data-name="Ellipse 54" cx="6.735" cy="6.735" r="6.735" transform="translate(79.07 715.49) rotate(135)" fill="#cc8aff"/>
    </g>
    <g transform="matrix(1, 0, 0, 1, 857.95, 2781)" filter="url(#Path_1235)">
      <path id="Path_1235-2" data-name="Path 1235" d="M2.023,4.047A2.023,2.023,0,1,1,4.047,2.023,2.023,2.023,0,0,1,2.023,4.047Z" transform="translate(67.53 713.47)" fill="#fff"/>
    </g>
    <g transform="matrix(1, 0, 0, 1, 857.95, 2781)" filter="url(#Ellipse_55)">
      <circle id="Ellipse_55-2" data-name="Ellipse 55" cx="40" cy="40" r="40" transform="translate(31.05 30)" fill="#fff"/>
    </g>
    <g transform="matrix(1, 0, 0, 1, 857.95, 2781)" filter="url(#Ellipse_56)">
      <circle id="Ellipse_56-2" data-name="Ellipse 56" cx="40" cy="40" r="40" transform="translate(31.05 148)" fill="#fff"/>
    </g>
    <g transform="matrix(1, 0, 0, 1, 857.95, 2781)" filter="url(#Ellipse_57)">
      <circle id="Ellipse_57-2" data-name="Ellipse 57" cx="40" cy="40" r="40" transform="translate(31.05 266)" fill="#fff"/>
    </g>
    <g transform="matrix(1, 0, 0, 1, 857.95, 2781)" filter="url(#Ellipse_58)">
      <circle id="Ellipse_58-2" data-name="Ellipse 58" cx="40" cy="40" r="40" transform="translate(31.05 383)" fill="#fff"/>
    </g>
    <g transform="matrix(1, 0, 0, 1, 857.95, 2781)" filter="url(#Ellipse_59)">
      <circle id="Ellipse_59-2" data-name="Ellipse 59" cx="40" cy="40" r="40" transform="translate(31.05 501)" fill="#fff"/>
    </g>
    <g transform="matrix(1, 0, 0, 1, 857.95, 2781)" filter="url(#Ellipse_60)">
      <circle id="Ellipse_60-2" data-name="Ellipse 60" cx="40" cy="40" r="40" transform="translate(31.05 619)" fill="#fff"/>
    </g>
    <g transform="matrix(1, 0, 0, 1, 857.95, 2781)" filter="url(#Ellipse_61)">
      <circle id="Ellipse_61-2" data-name="Ellipse 61" cx="40" cy="40" r="40" transform="translate(31.05 736)" fill="#fff"/>
    </g>
    <text id="_1" data-name="1" transform="translate(938 2863)" fill="#fd9720" font-size="32" font-family="HelveticaNeue-Bold, Helvetica Neue" font-weight="700"><tspan x="-17.792" y="0">1</tspan></text>
    <text id="_2" data-name="2" transform="translate(938 2981)" fill="#fe7347" font-size="32" font-family="HelveticaNeue-Bold, Helvetica Neue" font-weight="700"><tspan x="-17.792" y="0">2</tspan></text>
    <text id="_3" data-name="3" transform="translate(938 3099)" fill="#1ccbd8" font-size="32" font-family="HelveticaNeue-Bold, Helvetica Neue" font-weight="700"><tspan x="-17.792" y="0">3</tspan></text>
    <text id="_4" data-name="4" transform="translate(938 3216)" fill="#1fa6ee" font-size="32" font-family="HelveticaNeue-Bold, Helvetica Neue" font-weight="700"><tspan x="-17.792" y="0">4</tspan></text>
    <text id="_5" data-name="5" transform="translate(938 3334)" fill="#207ed0" font-size="32" font-family="HelveticaNeue-Bold, Helvetica Neue" font-weight="700"><tspan x="-17.792" y="0">5</tspan></text>
    <text id="_6" data-name="6" transform="translate(938 3452)" fill="#cc8aff" font-size="32" font-family="HelveticaNeue-Bold, Helvetica Neue" font-weight="700"><tspan x="-17.792" y="0">6</tspan></text>
    <text id="_7" data-name="7" transform="translate(938 3569)" fill="#fd4046" font-size="32" font-family="HelveticaNeue-Bold, Helvetica Neue" font-weight="700"><tspan x="-17.792" y="0">7</tspan></text>
  </g>
</svg>
