<svg id="Layer_2" data-name="Layer 2" xmlns="http://www.w3.org/2000/svg" width="84.248" height="68.93" viewBox="0 0 84.248 68.93">
  <g id="Layer_1" data-name="Layer 1">
    <circle id="Ellipse_19" data-name="Ellipse 19" cx="2" cy="2" r="2" transform="translate(54.454 13.368)" fill="#333"/>
    <path id="Path_1191" data-name="Path 1191" d="M59,38a2,2,0,0,0,2-2V24a2,2,0,0,0-4,0V36A2,2,0,0,0,59,38Z" transform="translate(-2.546 -1.206)" fill="#333"/>
    <path id="Path_1192" data-name="Path 1192" d="M20,16H34a2,2,0,0,0,0-4H20a2,2,0,0,0,0,4Z" transform="translate(-0.965 -0.542)" fill="#333"/>
    <path id="Path_1193" data-name="Path 1193" d="M20,24H34a2,2,0,0,0,0-4H20a2,2,0,0,0,0,4Z" transform="translate(-0.965 -0.903)" fill="#333"/>
    <path id="Path_1194" data-name="Path 1194" d="M20,32H34a2,2,0,0,0,0-4H20a2,2,0,0,0,0,4Z" transform="translate(-0.965 -1.264)" fill="#333"/>
    <path id="Path_1195" data-name="Path 1195" d="M20,40H34a2,2,0,0,0,0-4H20a2,2,0,0,0,0,4Z" transform="translate(-0.965 -1.625)" fill="#333"/>
    <path id="Path_1196" data-name="Path 1196" d="M82.333,7.659H76.589V1.915A1.915,1.915,0,0,0,74.674,0H49.783a9.574,9.574,0,0,0-7.659,3.887A9.574,9.574,0,0,0,34.465,0H9.574A1.915,1.915,0,0,0,7.659,1.915V7.659H1.915A1.915,1.915,0,0,0,0,9.574V55.527a1.915,1.915,0,0,0,1.915,1.915H21.062c10.445,0,13.815,3.1,19.53,10.722a1.915,1.915,0,0,0,3.064,0c5.936-7.917,9.2-10.722,15.7-10.722H82.333a1.915,1.915,0,0,0,1.915-1.915V9.574A1.915,1.915,0,0,0,82.333,7.659ZM49.783,3.829H72.759V45.953H51.7a10.933,10.933,0,0,0-7.659,3.561V9.574A5.744,5.744,0,0,1,49.783,3.829Zm-38.294,0H34.465a5.744,5.744,0,0,1,5.744,5.744V49.63c-2.164-2.144-4.787-3.676-7.659-3.676H11.488Zm68.93,49.783H59.356c-8.071,0-12.369,3.992-17.232,10.253-5.055-6.424-9.7-10.253-21.062-10.253H3.829V11.488H7.659v36.38a1.915,1.915,0,0,0,1.915,1.915H32.55c2.958,0,6.261,3.4,7.86,6.6a1.915,1.915,0,0,0,1.714,1.063,2.3,2.3,0,0,0,.44,0A1.915,1.915,0,0,0,43.828,56.4h0c1.608-3.207,4.509-6.615,7.87-6.615H74.674a1.915,1.915,0,0,0,1.915-1.915V11.488h3.829Z" fill="#333"/>
  </g>
</svg>
