<svg xmlns="http://www.w3.org/2000/svg" width="58.13" height="68.925" viewBox="0 0 58.13 68.925">
  <g id="document" transform="translate(-40.097)">
    <g id="Group_2392" data-name="Group 2392" transform="translate(40.097)">
      <g id="Group_2391" data-name="Group 2391">
        <path id="Path_1155" data-name="Path 1155" d="M94.9,9.135H89.092V3.322A3.331,3.331,0,0,0,85.771,0H43.419A3.331,3.331,0,0,0,40.1,3.322V56.469a3.331,3.331,0,0,0,3.322,3.322h5.813V65.6a3.331,3.331,0,0,0,3.322,3.322H80.787a9.692,9.692,0,0,0,5.74-2.276l9.279-8.734a8.82,8.82,0,0,0,2.419-5.6l0-39.86A3.332,3.332,0,0,0,94.9,9.135ZM49.231,12.456V57.3H43.419a.842.842,0,0,1-.83-.83V3.322a.842.842,0,0,1,.83-.83H85.771a.842.842,0,0,1,.83.83V9.135H52.553A3.331,3.331,0,0,0,49.231,12.456ZM94.1,56.1l-9.279,8.734a4.407,4.407,0,0,1-.711.521V57.714a2.082,2.082,0,0,1,2.076-2.076h8.308A3.487,3.487,0,0,1,94.1,56.1Zm1.635-3.784a3.874,3.874,0,0,1-.113.83H86.184a4.577,4.577,0,0,0-4.567,4.567v8.619a4.343,4.343,0,0,1-.83.1H52.553a.841.841,0,0,1-.83-.83V12.456a.841.841,0,0,1,.83-.83H94.9a.842.842,0,0,1,.83.83Z" transform="translate(-40.097)" fill="#333"/>
      </g>
    </g>
    <g id="Group_2394" data-name="Group 2394" transform="translate(60.443 20.76)">
      <g id="Group_2393" data-name="Group 2393" transform="translate(0)">
        <path id="Path_1156" data-name="Path 1156" d="M216.563,154.216H192.481a1.246,1.246,0,0,0,0,2.491h24.082a1.246,1.246,0,1,0,0-2.491Z" transform="translate(-191.235 -154.216)" fill="#333"/>
      </g>
    </g>
    <g id="Group_2396" data-name="Group 2396" transform="translate(60.443 37.369)">
      <g id="Group_2395" data-name="Group 2395" transform="translate(0)">
        <path id="Path_1157" data-name="Path 1157" d="M216.563,277.59H192.481a1.246,1.246,0,1,0,0,2.491h24.082a1.246,1.246,0,1,0,0-2.491Z" transform="translate(-191.235 -277.59)" fill="#333"/>
      </g>
    </g>
    <g id="Group_2398" data-name="Group 2398" transform="translate(60.443 45.673)">
      <g id="Group_2397" data-name="Group 2397">
        <path id="Path_1158" data-name="Path 1158" d="M205.768,339.277H192.482a1.246,1.246,0,0,0,0,2.491h13.287a1.246,1.246,0,0,0,0-2.491Z" transform="translate(-191.236 -339.277)" fill="#333"/>
      </g>
    </g>
    <g id="Group_2400" data-name="Group 2400" transform="translate(60.443 29.065)">
      <g id="Group_2399" data-name="Group 2399" transform="translate(0)">
        <path id="Path_1159" data-name="Path 1159" d="M216.563,215.9H192.481a1.246,1.246,0,0,0,0,2.491h24.082a1.246,1.246,0,1,0,0-2.491Z" transform="translate(-191.235 -215.903)" fill="#333"/>
      </g>
    </g>
  </g>
</svg>
