<svg id="Group_2142" data-name="Group 2142" xmlns="http://www.w3.org/2000/svg" width="23.195" height="20" viewBox="0 0 23.195 20">
  <path id="Path_1068" data-name="Path 1068" d="M35.7,44.5a8.229,8.229,0,0,0-5.546,2.24,6.585,6.585,0,0,0-2.045,5.579c-.842-.1-1.608-.219-2.379-.284a1.478,1.478,0,0,0-.808.137c-.749.422-1.466.9-2.317,1.431.156-.706.257-1.324.436-1.919a.729.729,0,0,0-.332-.965,6.56,6.56,0,0,1-2.859-7.367,7.293,7.293,0,0,1,5.124-5,8.59,8.59,0,0,1,9.386,2.75A6.429,6.429,0,0,1,35.7,44.5Zm-9.909-.876a.992.992,0,0,0-.955-.993.964.964,0,0,0-1,.932.953.953,0,0,0,.944.989.98.98,0,0,0,1.015-.928Zm5.17-.993a.994.994,0,0,0-.971.979.969.969,0,0,0,1,.947.963.963,0,1,0-.026-1.926Z" transform="translate(-19.582 -37.92)" fill="#797979"/>
  <path id="Path_1069" data-name="Path 1069" d="M136.57,133.454a7.312,7.312,0,0,0-1.973-.829,11.035,11.035,0,0,0-2.055.384,6.865,6.865,0,0,1-5.569-1.817c-2.97-2.747-2.545-6.959.89-9.21a7.49,7.49,0,0,1,9.685,1.442,5.5,5.5,0,0,1-.636,7.673c-.664.589-.9,1.074-.477,1.85a2.2,2.2,0,0,1,.133.506Zm-7.761-7.514a.8.8,0,1,0,.006-1.6.8.8,0,1,0-.006,1.6Zm5-1.6a.8.8,0,0,0-.8.767.791.791,0,1,0,.8-.767Z" transform="translate(-115.618 -113.454)" fill="#797979"/>
</svg>
